<svg xmlns="http://www.w3.org/2000/svg" fill="none" viewBox="0 0 32 32">
  <rect width="32" height="32" fill="#262626" rx="16"/>
  <path fill="#F2F2F2" d="M6.865 23.345c-1.794 0-2.714-1.2075-2.714-3.1855 0-1.173.368-3.45.8395-5.819l-1.472.092c-.667.0575-1.196-.4715-1.2305-1.127-.0345-.621.529-1.127 1.1385-1.1845l2.047-.138c.3795-1.794.759-3.4385 1.0005-4.4275.2415-.989.736-1.564 1.5985-1.3915.5865.115 1.035.6325.7475 1.725-.184.736-.552 2.231-.9545 3.9445l2.116-.138c.7015-.046 1.242.4255 1.288 1.058.046.6325-.529 1.219-1.265 1.288l-2.6565.161c-.4715 2.254-.874 4.462-.874 5.5545 0 .7015.115 1.2995.667 1.2995.9775 0 1.6445-1.7365 2.139-2.7715.3795-.6785.8395-.8625 1.4375-.6325.6555.2645.7705.989.552 1.6445-.552 1.656-2.277 4.048-4.4045 4.048Zm20.0702.3335c-.9315 0-1.61-.8625-1.61-2.576 0-1.6445.4255-4.4965 1.1615-7.199l-.4025-.1495c-1.242 1.932-2.507 4.8185-3.3465 6.2445-.506.8855-.9315 1.1845-1.426 1.1845-.8625 0-1.0695-.92-1.0695-1.8285 0-1.1845.276-3.611.5405-5.29l-.345-.1495c-1.288 2.254-2.553 5.451-3.4615 7.9005-.391 1.0695-.8625 1.6445-1.5755 1.6445-1.081 0-1.0695-1.334-.8395-2.461.4715-2.323.897-5.0715.9775-7.705-.4025-.253-.6095-.782-.6095-1.3915 0-.9545.621-1.587 1.403-1.587.7935 0 1.288.644 1.288 1.679 0 1.127-.322 3.404-.6555 4.8645l.3795.0805c.5175-1.38 1.4605-3.5535 2.2655-4.738.5865-.8855 1.2305-1.426 1.9435-1.426.7245 0 1.1845.5405 1.1845 1.518 0 1.0235-.2185 3.0015-.4945 4.324l.345.1495c.529-1.2995 1.449-3.22 2.3345-4.4965.6785-.9545 1.4145-1.518 2.2195-1.518.8165 0 1.449.575 1.449 1.8745 0 2.0125-1.0925 4.991-1.196 8.1305.5865.1955.92.805.92 1.4375 0 .9315-.6785 1.4835-1.38 1.4835Z"/>
</svg>
