<svg xmlns="http://www.w3.org/2000/svg" fill="none" viewBox="0 0 16 10">
  <path fill="#262626" d="M3.88.47v1.66H6.5v.91H3.88v3.73a2 2 0 0 0 .1.66 1.02 1.02 0 0 0 .7.64c.15.04.31.06.49.06a4.22 4.22 0 0 0 1.15-.14l.28-.06.16.83c-.1.06-.22.11-.36.16a4.04 4.04 0 0 1-.98.18l-.54.03c-.31 0-.6-.05-.86-.13a1.8 1.8 0 0 1-1.15-1.14c-.11-.3-.17-.66-.17-1.09V3.04H.9v-.9h1.8V.46h1.18Z"/>
  <path fill="#5889B5" d="M3.88.47v1.66H6.5v.91H3.88v3.73a2 2 0 0 0 .1.66 1.02 1.02 0 0 0 .7.64c.15.04.31.06.49.06a4.22 4.22 0 0 0 1.15-.14l.28-.06.16.83c-.1.06-.22.11-.36.16a4.04 4.04 0 0 1-.98.18l-.54.03c-.31 0-.6-.05-.86-.13a1.8 1.8 0 0 1-1.15-1.14c-.11-.3-.17-.66-.17-1.09V3.04H.9v-.9h1.8V.46h1.18Z"/>
  <path fill="#262626" d="m9.45 2.13.03.65c.14-.24.33-.43.55-.57a1.9 1.9 0 0 1 1.32-.14c.14.04.27.1.38.17a1.28 1.28 0 0 1 .39.5 1.61 1.61 0 0 1 .47-.5 1.65 1.65 0 0 1 .87-.24c.24 0 .45.04.64.11.2.07.36.17.49.3.14.16.25.36.33.6.07.25.11.53.11.86V9h-1.12V3.86c0-.15-.01-.27-.05-.38a.73.73 0 0 0-.14-.28.64.64 0 0 0-.26-.15 1.1 1.1 0 0 0-.7.01.75.75 0 0 0-.26.15.74.74 0 0 0-.15.24.98.98 0 0 0-.08.28V9h-1.12V3.85c0-.14-.01-.27-.05-.38a.63.63 0 0 0-.14-.27.54.54 0 0 0-.25-.15 1.2 1.2 0 0 0-.7 0 .72.72 0 0 0-.4.3 1 1 0 0 0-.1.18V9H8.4V2.13h1.05Z"/>
</svg>
